<?xml version="1.0" encoding="UTF-8"?>
<svg id="Layer_2" data-name="Layer 2" xmlns="http://www.w3.org/2000/svg" viewBox="0 0 2994.66 374.53">
  <defs>
    <style>
      .cls-1 {
        fill: #5b53a3;
      }

      .cls-2 {
        fill: #2b2b2b;
      }

      .cls-3 {
        fill: #ebd325;
      }

      .cls-4 {
        fill: #c94244;
      }
    </style>
  </defs>
  <path class="cls-2" d="m35.68,0v24.52c-1.92.85-3.74,1.86-5.45,3.03V0h5.45Z"/>
  <path class="cls-2" d="m35.68,87.61v40.79h-5.45v-43.82c1.71,1.17,3.53,2.18,5.45,3.03Z"/>
  <rect class="cls-2" x="30.23" y="111.04" width="5.45" height="263.49"/>
  <path class="cls-2" d="m20.43,37.68c-.32.5-.62,1.01-.91,1.53H0v-1.53h20.43Z"/>
  <path class="cls-1" d="m30.23,0v27.55c-3.93,2.66-7.27,6.12-9.8,10.13H0V0h30.23Z"/>
  <rect class="cls-2" x="223.43" y="37.68" width="2725.55" height="1.53"/>
  <rect class="cls-4" x="223.43" y="39.21" width="2771.23" height="8.51"/>
  <path class="cls-2" d="m249.47,37.68v1.53H79.65c-.28-.52-.59-1.03-.91-1.53h170.73Z"/>
  <path class="cls-4" d="m249.47,39.21v8.51H83.03c-.75-3.01-1.9-5.87-3.38-8.51h169.82Z"/>
  <path class="cls-3" d="m79.65,39.21h-43.97v48.4c-1.92-.85-3.74-1.86-5.45-3.03v-45.37h-10.71c.29-.52.59-1.03.91-1.53h9.8v-10.13c1.71-1.17,3.53-2.18,5.45-3.03v13.16h43.06c.32.5.63,1.01.91,1.53Z"/>
  <path class="cls-2" d="m30.23,27.55v10.13h-9.8c2.53-4.01,5.87-7.47,9.8-10.13Z"/>
  <path class="cls-2" d="m30.23,39.21v45.37c-9.12-6.2-15.11-16.66-15.11-28.52,0-6.12,1.6-11.87,4.4-16.85h10.71Z"/>
  <path class="cls-2" d="m78.74,37.68h-43.06v-13.16c4.25-1.88,8.96-2.92,13.91-2.92,12.27,0,23.05,6.42,29.15,16.08Z"/>
  <rect class="cls-2" x="223.43" y="47.72" width="2771.23" height="42.81"/>
  <path class="cls-2" d="m249.47,47.72v42.81H49.59c-.36,0-.71-.01-1.06-.02-4.57-.13-8.91-1.16-12.85-2.9v-48.4h43.97c1.48,2.64,2.63,5.5,3.38,8.51h166.44Z"/>
  <path class="cls-2" d="m49.59,90.53h-1.06v-.02c.35,0,.7.02,1.06.02Z"/>
</svg>