<?xml version="1.0" encoding="UTF-8" standalone="no"?>
<svg
   id="Layer_2"
   data-name="Layer 2"
   viewBox="0 0 400.00001 100"
   version="1.1"
   sodipodi:docname="ArtPage_Portrait.svg"
   inkscape:version="1.4.2 (f4327f4, 2025-05-13)"
   width="400"
   height="100"
   xmlns:inkscape="http://www.inkscape.org/namespaces/inkscape"
   xmlns:sodipodi="http://sodipodi.sourceforge.net/DTD/sodipodi-0.dtd"
   xmlns="http://www.w3.org/2000/svg"
   xmlns:svg="http://www.w3.org/2000/svg">
  <sodipodi:namedview
     id="namedview12"
     pagecolor="#ffffff"
     bordercolor="#000000"
     borderopacity="0.25"
     inkscape:showpageshadow="2"
     inkscape:pageopacity="0.0"
     inkscape:pagecheckerboard="0"
     inkscape:deskcolor="#d1d1d1"
     inkscape:zoom="1.1841077"
     inkscape:cx="321.33901"
     inkscape:cy="139.76769"
     inkscape:window-width="1920"
     inkscape:window-height="1001"
     inkscape:window-x="-9"
     inkscape:window-y="-9"
     inkscape:window-maximized="1"
     inkscape:current-layer="Layer_2" />
  <defs
     id="defs1">
    <style
       id="style1">
      .cls-1 {
        fill: #5b53a3;
      }

      .cls-2 {
        fill: #2b2b2b;
      }

      .cls-3 {
        fill: #ebd325;
      }

      .cls-4 {
        fill: #c94244;
      }
    </style>
  </defs>
  <path
     class="cls-2"
     d="m 35.68,0 v 24.52 c -1.92,0.85 -3.74,1.86 -5.45,3.03 V 0 Z"
     id="path1" />
  <path
     class="cls-2"
     d="m 20.43,37.68 c -0.32,0.5 -0.62,1.01 -0.91,1.53 H 0 v -1.53 z"
     id="path3" />
  <path
     class="cls-1"
     d="m 30.23,0 v 27.55 c -3.93,2.66 -7.27,6.12 -9.8,10.13 H 0 V 0 Z"
     id="path4" />
  <rect
     class="cls-2"
     x="223.42999"
     y="37.68"
     width="2725.55"
     height="1.53"
     id="rect4" />
  <rect
     class="cls-4"
     x="223.42999"
     y="39.209999"
     width="2771.23"
     height="8.5100002"
     id="rect5" />
  <path
     class="cls-2"
     d="m 249.47,37.68 v 1.53 H 79.65 c -0.28,-0.52 -0.59,-1.03 -0.91,-1.53 z"
     id="path5" />
  <path
     class="cls-4"
     d="m 249.47,39.21 v 8.51 H 83.03 c -0.75,-3.01 -1.9,-5.87 -3.38,-8.51 z"
     id="path6" />
  <path
     class="cls-3"
     d="M 79.65,39.21 H 35.68 v 48.4 C 33.76,86.76 31.94,85.75 30.23,84.58 V 39.21 H 19.52 c 0.29,-0.52 0.59,-1.03 0.91,-1.53 h 9.8 V 27.55 c 1.71,-1.17 3.53,-2.18 5.45,-3.03 v 13.16 h 43.06 c 0.32,0.5 0.63,1.01 0.91,1.53 z"
     id="path7" />
  <path
     class="cls-2"
     d="m 30.23,27.55 v 10.13 h -9.8 c 2.53,-4.01 5.87,-7.47 9.8,-10.13 z"
     id="path8" />
  <path
     class="cls-2"
     d="M 30.23,39.21 V 84.58 C 21.11,78.38 15.12,67.92 15.12,56.06 c 0,-6.12 1.6,-11.87 4.4,-16.85 z"
     id="path9" />
  <path
     class="cls-2"
     d="M 78.74,37.68 H 35.68 V 24.52 c 4.25,-1.88 8.96,-2.92 13.91,-2.92 12.27,0 23.05,6.42 29.15,16.08 z"
     id="path10" />
  <rect
     class="cls-2"
     x="223.42999"
     y="47.720001"
     width="2771.23"
     height="42.810001"
     id="rect10" />
  <path
     class="cls-2"
     d="M 249.47,47.72 V 90.53 H 49.59 c -0.36,0 -0.71,-0.01 -1.06,-0.02 -4.57,-0.13 -8.91,-1.16 -12.85,-2.9 v -48.4 h 43.97 c 1.48,2.64 2.63,5.5 3.38,8.51 z"
     id="path11" />
  <path
     class="cls-2"
     d="m 49.59,90.53 h -1.06 v -0.02 c 0.35,0 0.7,0.02 1.06,0.02 z"
     id="path12" />
</svg>
