<?xml version="1.0" encoding="UTF-8"?>
<svg id="Layer_2" data-name="Layer 2" xmlns="http://www.w3.org/2000/svg" viewBox="0 0 644.65 504.26">
  <defs>
    <style>
      .cls-1 {
        fill: #cbcbcb;
      }

      .cls-2 {
        fill: #c94144;
      }

      .cls-3 {
        fill: #5b41cf;
      }

      .cls-4 {
        fill: #2b2b2b;
      }

      .cls-5 {
        fill: #ebd223;
      }
    </style>
  </defs>
  <polygon class="cls-1" points="225.36 306.79 157.56 374.58 197.11 334.99 225.36 306.79"/>
  <polygon class="cls-4" points="274.06 264.98 274.06 354.39 124.32 504.12 28.03 504.12 141.24 390.91 157.56 374.58 225.36 306.79 225.36 216.28 274.06 264.98"/>
  <rect class="cls-2" x="328" y="149.18" width="69.49" height="16.76" transform="translate(-5.16 302.65) rotate(-45)"/>
  <polygon class="cls-4" points="381.4 127.07 332.25 176.21 156.17 .12 254.46 .12 381.4 127.07"/>
  <rect class="cls-5" x="386.8" y="90.37" width="69.49" height="16.76" transform="translate(53.64 327) rotate(-45)"/>
  <polygon class="cls-4" points="440.19 68.26 391.05 117.4 273.79 .12 372.06 .12 440.19 68.26"/>
  <polygon class="cls-4" points="500.6 7.86 451.46 57.01 394.57 .12 492.86 .12 500.6 7.86"/>
  <rect class="cls-3" x="447.2" y="29.98" width="69.49" height="16.76" transform="translate(114.04 352.03) rotate(-45)"/>
  <polygon class="cls-4" points="381.84 246.61 366.23 262.23 334.12 230.14 310.99 253.27 310.99 221.16 333.68 198.47 381.84 246.61"/>
  <polygon class="cls-4" points="500.34 365.11 429.61 435.84 429.61 339.54 452.18 316.97 500.34 365.11"/>
  <polygon class="cls-4" points="440.84 305.61 425.23 321.23 406.52 302.53 381.38 316.02 381.38 277.4 377.07 273.09 392.68 257.47 440.84 305.61"/>
  <polygon class="cls-5" points="381.38 277.4 333.92 324.84 286.67 277.59 310.99 253.27 334.12 230.14 366.23 262.23 377.07 273.09 381.38 277.4"/>
  <polygon class="cls-2" points="310.99 207.01 286.16 246.01 274.06 264.98 225.36 216.28 226.1 215.88 287.11 183.12 310.99 207.01"/>
  <polygon class="cls-3" points="429.61 325.61 405.13 364.02 392.67 383.59 344.75 335.67 381.38 316.02 406.52 302.53 425.23 321.23 429.61 325.61"/>
  <polygon class="cls-4" points="333.92 324.84 333.92 412.53 242.32 504.12 146.03 504.12 286.67 363.48 286.67 277.59 333.92 324.84"/>
  <polygon class="cls-4" points="392.67 383.59 392.67 472.78 361.32 504.12 265.03 504.12 344.75 424.4 344.75 335.67 392.67 383.59"/>
</svg>