<?xml version="1.0" encoding="UTF-8"?>
<svg id="Layer_2" data-name="Layer 2" xmlns="http://www.w3.org/2000/svg" viewBox="0 0 644.65 1357.93">
  <defs>
    <style>
      .cls-1 {
        fill: #cbcbcb;
      }

      .cls-2 {
        fill: #c94144;
      }

      .cls-3 {
        fill: #5b41cf;
      }

      .cls-4 {
        fill: #2b2b2b;
      }

      .cls-5 {
        fill: #ebd223;
      }
    </style>
  </defs>
  <polygon class="cls-1" points="225.36 799.4 157.56 867.18 197.11 827.6 225.36 799.4"/>
  <polygon class="cls-4" points="274.06 757.59 274.06 846.99 .12 1120.93 .12 1024.63 141.24 883.51 157.56 867.18 225.36 799.4 225.36 708.88 274.06 757.59"/>
  <rect class="cls-2" x="328" y="641.79" width="69.49" height="16.76" transform="translate(-353.49 446.93) rotate(-45)"/>
  <polygon class="cls-4" points="381.4 619.67 332.25 668.81 .12 336.68 .12 238.4 381.4 619.67"/>
  <rect class="cls-5" x="386.8" y="582.98" width="69.49" height="16.76" transform="translate(-294.68 471.29) rotate(-45)"/>
  <polygon class="cls-4" points="440.19 560.86 391.05 610 273.79 492.73 .12 219.06 .12 120.79 440.19 560.86"/>
  <polygon class="cls-4" points="500.6 500.47 451.46 549.61 .12 98.28 .12 0 492.86 492.73 500.6 500.47"/>
  <rect class="cls-3" x="447.2" y="522.59" width="69.49" height="16.76" transform="translate(-234.29 496.31) rotate(-45)"/>
  <polygon class="cls-4" points="381.84 739.22 366.23 754.84 334.12 722.74 310.99 745.87 310.99 713.76 333.68 691.07 381.84 739.22"/>
  <polygon class="cls-4" points="500.34 857.72 429.61 928.45 429.61 832.15 452.18 809.57 500.34 857.72"/>
  <polygon class="cls-4" points="440.84 798.22 425.23 813.84 406.52 795.13 381.38 808.62 381.38 770 377.07 765.69 392.68 750.07 440.84 798.22"/>
  <polygon class="cls-5" points="381.38 770 333.92 817.45 286.67 770.19 310.99 745.87 334.12 722.74 366.23 754.84 377.07 765.69 381.38 770"/>
  <polygon class="cls-2" points="310.99 699.61 286.16 738.61 274.06 757.59 225.36 708.88 226.1 708.48 287.11 675.73 310.99 699.61"/>
  <polygon class="cls-3" points="429.61 818.22 405.13 856.62 392.67 876.19 344.75 828.28 381.38 808.62 406.52 795.13 425.23 813.84 429.61 818.22"/>
  <polygon class="cls-4" points="333.92 817.45 333.92 905.13 .12 1238.93 .12 1142.63 146.03 996.73 286.67 856.09 286.67 770.19 333.92 817.45"/>
  <polygon class="cls-4" points="392.67 876.19 392.67 965.39 .12 1357.93 .12 1261.63 265.03 996.73 344.75 917 344.75 828.28 392.67 876.19"/>
</svg>