<?xml version="1.0" encoding="UTF-8"?>
<svg id="Layer_1" data-name="Layer 1" xmlns="http://www.w3.org/2000/svg" viewBox="0 0 145 520">
  <defs>
    <style>
      .cls-1 {
        fill: #c94144;
      }

      .cls-2 {
        fill: #5b41cf;
      }

      .cls-3 {
        fill: #2b2b2b;
      }

      .cls-4 {
        fill: #ebd223;
      }
    </style>
  </defs>
  <path class="cls-1" d="m120.5,77.5c0,4.17-.52,8.22-1.5,12.09-1.57,6.19-4.32,11.91-8,16.91-2.57,3.5-5.6,6.65-9,9.35-2.48,1.98-5.16,3.72-8,5.19-2.85,1.48-5.86,2.68-9,3.57-2.58.75-5.26,1.28-8,1.58-1.8.21-3.64.31-5.5.31-1.18,0-2.34-.04-3.5-.12V28.62c1.16-.08,2.32-.12,3.5-.12,1.86,0,3.7.1,5.5.31,2.74.3,5.42.83,8,1.58,3.14.89,6.15,2.09,9,3.57,2.84,1.47,5.52,3.21,8,5.19,3.4,2.7,6.43,5.85,9,9.35,3.68,5,6.43,10.72,8,16.91.98,3.87,1.5,7.92,1.5,12.09Z"/>
  <circle class="cls-2" cx="71" cy="246" r="49"/>
  <path class="cls-4" d="m120,414c0,3.4-.35,6.72-1,9.92-1.39,6.74-4.16,12.97-8,18.39-2.55,3.6-5.59,6.85-9,9.64-2.48,2.03-5.16,3.82-8,5.33-2.85,1.51-5.85,2.76-9,3.69-2.58.77-5.26,1.33-8,1.67v-97.28c2.74.34,5.42.9,8,1.67,3.15.93,6.15,2.18,9,3.69,2.84,1.51,5.52,3.3,8,5.33,3.41,2.79,6.45,6.04,9,9.64,3.84,5.42,6.61,11.65,8,18.39.65,3.2,1,6.52,1,9.92Z"/>
  <path class="cls-4" d="m77,365.36v97.28c-1.97.24-3.97.36-6,.36-1.01,0-2.01-.03-3-.09-2.73-.17-5.4-.55-8-1.14-3.12-.72-6.13-1.74-9-3.03-2.82-1.25-5.49-2.77-8-4.52-3.32-2.32-6.35-5.04-9-8.09-3.28-3.78-5.99-8.06-8-12.72-2.58-5.95-4-12.51-4-19.41s1.42-13.46,4-19.41c2.01-4.66,4.72-8.94,8-12.72,2.65-3.05,5.68-5.77,9-8.09,2.51-1.75,5.18-3.27,8-4.52,2.87-1.29,5.88-2.31,9-3.03,2.6-.59,5.27-.97,8-1.14.99-.06,1.99-.09,3-.09,2.03,0,4.03.12,6,.36Z"/>
  <path class="cls-3" d="m26,59.29c-2.26,5.63-3.5,11.78-3.5,18.21s1.24,12.58,3.5,18.21v427.29h-9V0h9v59.29Z"/>
  <rect class="cls-3" width="9" height="523"/>
  <path class="cls-3" d="m60,0v29.86c-3.13.75-6.14,1.8-9,3.13V0h9Z"/>
  <path class="cls-3" d="m51,122.01c2.86,1.33,5.87,2.38,9,3.13v397.86h-9V122.01Z"/>
  <path class="cls-3" d="m43,0v37.63c-3.33,2.4-6.36,5.2-9,8.33V0h9Z"/>
  <path class="cls-3" d="m43,117.37v405.63h-9V109.04c2.64,3.13,5.67,5.93,9,8.33Z"/>
  <path class="cls-3" d="m94,0v370.72c-2.85-1.51-5.85-2.76-9-3.69V0h9Z"/>
  <path class="cls-3" d="m85,460.97c3.15-.93,6.15-2.18,9-3.69v65.72h-9v-62.03Z"/>
  <path class="cls-1" d="m68,28.62v97.76c-2.73-.2-5.41-.61-8-1.24-3.13-.75-6.14-1.8-9-3.13-2.82-1.29-5.5-2.85-8-4.64-3.33-2.4-6.36-5.2-9-8.33-3.34-3.96-6.05-8.45-8-13.33-2.26-5.63-3.5-11.78-3.5-18.21s1.24-12.58,3.5-18.21c1.95-4.88,4.66-9.37,8-13.33,2.64-3.13,5.67-5.93,9-8.33,2.5-1.79,5.18-3.35,8-4.64,2.86-1.33,5.87-2.38,9-3.13,2.59-.63,5.27-1.04,8-1.24Z"/>
  <rect class="cls-3" x="68" width="9" height="523"/>
  <path class="cls-3" d="m128,0v523h-9v-99.08c.65-3.2,1-6.52,1-9.92s-.35-6.72-1-9.92V0h9Z"/>
  <path class="cls-3" d="m111,0v385.69c-2.55-3.6-5.59-6.85-9-9.64V0h9Z"/>
  <path class="cls-3" d="m111,442.31v80.69h-9v-71.05c3.41-2.79,6.45-6.04,9-9.64Z"/>
  <rect class="cls-3" x="136" width="9" height="523"/>
</svg>